<svg xmlns="http://www.w3.org/2000/svg" viewBox="0 0 401 81" width="401" height="81">
	<path d="M58 22.4c.7.7 1.1 1.9.7 3L46.1 62.6c-.8 2.4-4.1 2.7-5.4.5l-2.9-6.6c-1.7-2.9-3.7-5.6-6.1-7.9-2.3-2.3-5-4.4-7.9-6.1l-6.6-2.9c-2.2-1.3-1.9-4.5.5-5.4l37.2-12.6c1.2-.3 2.3 0 3.1.8zm49.3-2.7l-7.6 1.8v9.1h-3.3v6.5h3.3v17.4c0 7.2 3.9 9.7 9.5 9.7 2.8 0 4.9-.6 6.8-1.7v-6.2c-1.5.7-3 1.1-4.7 1.1-2.6 0-4.1-1.2-4.1-4.1V37.1h8.9v-6.5h-8.9c.1 0 .1-10.9.1-10.9zm16.9 43.9h7.6V31.2h-7.6v32.4zm33.1-5.8c-5.8 0-9.9-4.8-9.9-10.6s4-10.6 9.5-10.6c3.8 0 6.2 1.7 8.6 4.1l4.7-5.1c-3.1-3.4-6.9-5.7-13.2-5.7-9.9 0-17.1 7.9-17.1 17.2 0 9.5 7.2 17.2 17.1 17.2 6.4 0 10.2-2.6 13.5-6.2l-4.6-4.5c-2.4 2.5-5 4.2-8.6 4.2zm50.5-27.2h-9.2l-13.7 14.6V19.7l-7.6 1.8v42.1h7.6v-9.4l4.6-4.8 9.9 14.2h8.7L194.7 44l13.1-13.4zm34.5 17.1c0 .5-.1 1.7-.1 2.1H218c.8 5.4 4.6 8.4 9.5 8.4 3.7 0 6.3-1.4 8.9-3.9l4.4 3.9c-3.1 3.8-7.4 6.2-13.5 6.2-9.6 0-16.9-6.9-16.9-17.2 0-9.4 6.7-17.2 16.1-17.2 10.5-.1 15.8 8.2 15.8 17.7zm-7.5-2.9c-.5-4.9-3.4-8.7-8.4-8.7-4.6 0-7.9 3.6-8.6 8.7h17zm22.5-25.1l-7.6 1.8v9.1h-3.3v6.5h3.3v17.4c0 7.2 3.9 9.7 9.5 9.7 2.8 0 4.9-.6 6.8-1.7v-6.2c-1.5.7-3 1.1-4.7 1.1-2.6 0-4.1-1.2-4.1-4.1V37.1h8.9v-6.5h-8.9V19.7zm29.8 24.4c-.2-.1-.4-.1-.6-.2-3.6-1.2-6.8-2.2-6.8-4.4 0-2.1 1.7-3.4 4.6-3.4 2.7 0 6.1 1.2 9.3 3.1l3-5.4c-3.5-2.3-8-3.8-12.1-3.8-6.6 0-11.7 3.8-11.7 10.1 0 6.4 5.4 8.4 10.3 9.9.2.1.4.1.6.2 3.6 1.1 6.8 1.9 6.8 4.4 0 2.3-1.9 3.7-5.1 3.7-3.4 0-7.2-1.4-10.8-4.1l-3.4 5.1c4.1 3.2 9.3 4.9 14 4.9 6.9 0 12.2-3.4 12.2-10.4 0-6-5.5-8.2-10.3-9.7zM127.9 19.5c-2.3 0-4.2 1.9-4.2 4.2s1.9 4.2 4.2 4.2c2.3 0 4.2-1.9 4.2-4.2 0-2.3-1.9-4.2-4.2-4.2z" fill="#fff"/><path d="M42.1 0C19-.8 0 17.6 0 40.5v34.6C0 78.4 2.7 81 5.9 81h34.6C63.4 81 81.8 62 81 38.9 80.2 17.9 63.1.8 42.1 0zm-1.6 72.5c-17.7 0-32-14.3-32-32s14.3-32 32-32 32 14.3 32 32-14.3 32-32 32zm286.1-41.4h7.4v32.1h-7.4v-5c-2.1 3-5 5.6-10 5.6-7.2 0-11.4-4.9-11.4-12.3V31.1h7.4v18.2c0 5 2.5 7.8 6.9 7.8 4.3 0 7.2-3 7.2-8l-.1-18zm29.4-.4c-5.2 0-8.7 1.1-12.2 2.7l2 5.9c2.9-1.2 5.6-2 9.2-2 5.1 0 7.9 2.4 7.9 6.9v.6c-2.5-.8-5-1.3-8.9-1.3-7.5 0-13 3.4-13 10.5 0 6.6 5.3 10 11.4 10 4.9 0 8.2-2 10.4-4.6v3.9h7.3v-19c0-8.7-4.6-13.6-14.1-13.6zm7 20.9c0 4-3.6 6.7-8.5 6.7-3.5 0-6.2-1.7-6.2-4.7 0-3.2 2.7-5.1 7.3-5.1 2.9 0 5.5.6 7.4 1.3v1.8z" fill="#DE1297"/>
</svg>